<?xml version="1.0" standalone="no"?><!DOCTYPE svg PUBLIC "-//W3C//DTD SVG 1.1//EN" "http://www.w3.org/Graphics/SVG/1.1/DTD/svg11.dtd"><svg t="1774939761465" class="icon" viewBox="0 0 1024 1024" version="1.1" xmlns="http://www.w3.org/2000/svg" p-id="21602" xmlns:xlink="http://www.w3.org/1999/xlink" width="24" height="24"><path d="M789.333333 854.677333c0-10.965333-8.746667-20.010667-19.2-20.010666H254.293333c-10.474667 0-19.2 9.130667-19.2 20.010666 0 10.944 8.725333 19.989333 19.2 19.989334H770.133333c10.453333 0 19.2-9.130667 19.2-19.989334zM749.589333 192.192A15.722667 15.722667 0 0 0 750.592 192l-0.021333 0.362667a21.333333 21.333333 0 0 1-3.626667 42.304c-8.021333 68.586667-25.344 122.944-49.194667 166.016-30.357333 54.229333-69.44 88.96-111.402666 110.933333 42.026667 21.333333 81.642667 56.704 112 112.128 28.586667 51.221333 47.808 119.488 51.712 210.773333H274.24c4.096-90.794667 23.893333-159.061333 52.501333-211.477333 30.357333-54.229333 69.44-89.6 111.402667-110.933333-42.026667-21.973333-81.642667-56.704-112-112.128-23.424-42.688-40.682667-96.725333-48.682667-165.312H277.333333a21.333333 21.333333 0 0 1-3.498666-42.389334v-0.128a11.093333 11.093333 0 0 0 0.426666 0.064c1.002667-0.128 2.026667-0.213333 3.072-0.213333h469.333334c0.981333 0 1.962667 0.064 2.922666 0.213333zM312.192 234.666667c7.68 61.312 23.210667 109.76 44.309333 148.266666 34.368 62.72 72.32 96.256 121.877334 112.128l2.346666 0.64c1.130667 0.618667 1.749333 1.173333 2.88 1.813334l1.749334-0.64 2.346666 3.093333a9.664 9.664 0 0 1 1.749334 3.648c0.533333 1.28 1.130667 3.093333 1.130666 4.266667v6.122666c0 1.258667-0.533333 3.093333-1.130666 4.906667-0.597333 1.194667-1.152 2.389333-1.749334 3.648l-1.130666 1.834667-1.749334 1.258666c-1.152 0.64-1.749333 1.194667-3.498666 1.813334l-1.749334 1.194666c-50.154667 16.490667-87.488 49.408-122.474666 112.768-13.973333 25.536-25.642667 56.064-34.389334 92.629334-5.226667 23.146667-8.192 38.997333-9.322666 53.589333 34.986667-21.333333 109.056-36.544 194.197333-36.544v-281.6c-1.216-0.554667-1.749333-0.554667-3.498667-1.813333l-5.226666-1.834667c-32.64-10.944-59.52-28.053333-81.066667-50.581333-23.893333-24.426667-41.429333-54.229333-53.653333-87.786667-2.88-9.749333 1.216-19.498667 9.941333-23.146667 8.128-3.648 18.069333 1.28 21.546667 10.389334 10.496 28.629333 25.066667 54.229333 45.482666 74.922666 17.514667 18.325333 40.277333 32.362667 67.072 41.472l2.88 1.28 1.749334 0.64 2.901333-0.64 2.346667-1.28c27.456-8.533333 49.002667-23.146667 67.072-41.472 19.818667-20.693333 34.986667-46.869333 45.461333-75.562666a16.746667 16.746667 0 0 1 22.165333-9.749334c9.322667 3.626667 13.44 14.037333 9.941334 23.146667-12.224 33.557333-30.357333 63.445333-53.653334 87.786667-22.165333 22.528-48.426667 39.637333-82.794666 50.581333l-4.629334 2.474667c-1.152 0.554667-1.749333 1.194667-2.901333 1.194666V751.146667c90.986667 1.28 166.805333 19.52 194.197333 45.12-1.130667-29.269333-7.594667-51.776-9.322666-62.165334-8.746667-35.925333-19.818667-67.008-34.986667-93.824-34.389333-62.165333-71.722667-95.061333-121.28-111.573333l-2.944-1.173333c-1.152-0.64-2.282667-1.194667-2.901333-1.834667l-1.749334-0.64-1.130666-1.813333c-0.597333-1.194667-1.152-1.834667-2.346667-3.648l-1.152-4.266667v-6.741333l1.749333-4.906667 1.749334-3.669333 2.88-3.008c1.152-0.64 1.749333-1.194667 3.498666-1.834667l2.346667-0.64c49.024-15.850667 86.890667-49.386667 121.28-112.746667 21.013333-37.845333 36.586667-86.037333 43.989333-147.136h-400.426666z" fill="#919499" p-id="21603"></path></svg>